# xmcd CD database file
#
# Track frame offsets:
#	150
#	20290
#	39460
#	59410
#	78752
#	96394
#	115591
#	133653
#	149129
#	164626
#	187509
#	203909
#	220937
#	237270
#	263317
#
# Disc length: 3750 seconds
#
# Revision: 0
# Processed by: cddbd v1.5.1PL2 Copyright (c) Steve Scherf et al.
# Submitted via: CDex 1.51
#
DISCID=cb0ea40f
DTITLE=Various Artist - BEST HIT ANA DISC 2
DYEAR=2005
DGENRE=Rock
TTITLE0=OWNER OF A LONELY HEART/Yes
TTITLE1=SAILING/Christopher Cross
TTITLE2=WHAT A FOOL BELIEVES/Matt Bianco
TTITLE3=IT MIGHT BE YOU(THEME FROM TOOTSIE)/Stephen Bishop
TTITLE4=MISS YOU LIKE CRAZY/Natalie Cole
TTITLE5=BIGGEST PART OF ME/TAKE 6
TTITLE6=I LOVE YOU ALWAYS FOREVER/Donna Lewis
TTITLE7=I HEARD A RUMOR/Bananarama
TTITLE8=IF YOU DON'T KNOW ME BY NOW/Simply Red
TTITLE9=ANTONIO'S SONG(THE RAINBOW)/Michael Franks
TTITLE10=BABY,COME TO ME/Patti Austin with James Ingram
TTITLE11=WHAT IS LOVE?/Howard Jones
TTITLE12=SHE DRIVES ME CRAZY/Fine Young Cannibals
TTITLE13=THE KILLING MOON/Echo and The Bunnymen
TTITLE14=ALWAYS/Atrantic Starr
EXTD=YEAR: 2005
EXTT0=
EXTT1=
EXTT2=
EXTT3=
EXTT4=
EXTT5=
EXTT6=
EXTT7=
EXTT8=
EXTT9=
EXTT10=
EXTT11=
EXTT12=
EXTT13=
EXTT14=
PLAYORDER=
